<svg xmlns="http://www.w3.org/2000/svg" version="1.1" xmlns:xlink="http://www.w3.org/1999/xlink" xmlns:svgjs="http://svgjs.dev/svgjs" width="1440" height="560" preserveAspectRatio="none" viewBox="0 0 1440 560"><g mask="url(&quot;#SvgjsMask1148&quot;)" fill="none"><rect width="1440" height="560" x="0" y="0" fill="url(&quot;#SvgjsLinearGradient1149&quot;)"></rect><path d="M1440 0L979.79 0L1440 267.34z" fill="rgba(255, 255, 255, .1)"></path><path d="M979.79 0L1440 267.34L1440 282.92999999999995L435.7199999999999 0z" fill="rgba(255, 255, 255, .075)"></path><path d="M435.72 0L1440 282.92999999999995L1440 334.81999999999994L337.29 0z" fill="rgba(255, 255, 255, .05)"></path><path d="M337.28999999999996 0L1440 334.81999999999994L1440 442.8299999999999L304.01 0z" fill="rgba(255, 255, 255, .025)"></path><path d="M0 560L606.29 560L0 371.53z" fill="rgba(0, 0, 0, .1)"></path><path d="M0 371.53L606.29 560L1015.96 560L0 294.71z" fill="rgba(0, 0, 0, .075)"></path><path d="M0 294.71000000000004L1015.96 560L1079.25 560L0 292.42z" fill="rgba(0, 0, 0, .05)"></path><path d="M0 292.42L1079.25 560L1124.61 560L0 87.53000000000003z" fill="rgba(0, 0, 0, .025)"></path></g><defs><mask id="SvgjsMask1148"><rect width="1440" height="560" fill="#ffffff"></rect></mask><linearGradient x1="15.28%" y1="139.29%" x2="84.72%" y2="-39.29%" gradientUnits="userSpaceOnUse" id="SvgjsLinearGradient1149"><stop stop-color="rgba(25, 135, 84, 1)" offset="0"></stop><stop stop-color="rgba(25, 135, 84, 1)" offset="0.34"></stop><stop stop-color="rgba(25, 135, 84, 1)" offset="0.75"></stop><stop stop-color="rgba(25, 135, 84, 1)" offset="1"></stop></linearGradient></defs></svg>